<?xml version="1.0" encoding="UTF-8"?>
<svg id="Layer_1" data-name="Layer 1" xmlns="http://www.w3.org/2000/svg" viewBox="0 0 1783.38 283.83">
  <defs>
    <style>
      .cls-1 {
        fill: #fff;
      }
    </style>
  </defs>
  <path class="cls-1" d="m160.82,201.51c-4.33,45.11-38.66,59.56-74.2,51.09C37.83,241.09,0,190.46,0,131.27S37.74,47.04,92.24,59.65c39.95,9.11,64.07,32.86,69.22,61.22,4.6,24.85-8.28,37.74-23.66,41.61-5.89,1.47-13.44,1.75-20.44.37-15.65-3.22-28.44-15.37-14.54-41.98,15.65-30.29,1.56-50.17-12.98-53.48-20.16-4.6-41.24,23.2-41.24,71.16,0,45.01,18.23,83.77,55.78,92.05,26.7,5.8,46.03-2.49,51-30.01,1.75.28,3.59.55,5.43.92Z"/>
  <path class="cls-1" d="m281.69,232.9v-37.74c0-21.08-4.79-37.19-19.98-38.39-18.69-1.1-27.52,21.08-28.63,37.93v34.06c0,12.8,5.25,28.81,12.98,40.14,1.1,1.56,2.21,3.13,3.22,4.6v2.58c-26.97-2.49-53.94-5.8-80.92-10.03v-2.58c1.1-1.29,2.21-2.58,3.22-3.87,7.82-9.39,12.98-24.12,12.98-36.91v-80.92c0-12.98-5.25-29.37-12.98-40.78-1.1-1.66-2.21-3.22-3.22-4.88v-2.85c25.41,3.31,39.49,1.2,64.71-7.55v84.41c7.82-17.67,24.3-30.65,50.81-28.9,27.8,1.75,46.49,18.69,46.49,53.39v40.6c0,12.8,5.25,28.35,12.98,39.21,1.1,1.47,2.21,2.95,3.22,4.42v2.58c-26.97-.55-53.94-1.84-80.92-3.96v-2.58c1.1-1.38,2.21-2.76,3.22-4.05,7.82-10.03,12.8-25.13,12.8-37.93Z"/>
  <path class="cls-1" d="m474.35,235.93c-2.85,27.71-24.76,47.04-55.78,47.87-38.66,1.01-66.65-27.71-66.65-69.78s27.98-69.41,69.68-70.51c35.81-1.01,55.97,18.78,53.21,47.5-.64,5.71-4.79,37.83-57.07,39.49-4.79.09-9.76-.18-15.19-.55,4.6,25.96,17.77,37.93,34.7,37.28,16.29-.64,27.98-12.34,31.94-31.02,1.75-.09,3.41-.18,5.15-.28Zm-72.63-10.13c13.9-10.86,27.8-23.66,31.94-46.76,2.58-16.11-1.1-27.71-10.68-27.43-13.44.37-22.37,25.68-22.37,56.71,0,5.98.18,12.06,1.1,17.49Z"/>
  <path class="cls-1" d="m570.55,198.01c0-31.02-8.93-55.32-24.49-53.85-7.18.64-10.86,6.17-9.3,12.98,2.21,9.76,14.73,20.44.83,27.89-4.14,2.49-9.11,3.77-14.36,4.23-13.26,1.1-27.52-4.23-28.44-14.64-1.56-13.16,18.87-35.53,57.07-39.03,38.39-3.59,66.19,14.27,67.29,54.96v29.73c0,12.8,4.97,27.62,12.8,37.28,1.1,1.29,2.21,2.67,3.22,3.96v2.58c-21.54,2.67-43.08,5.06-64.71,7.27v-9.76c-6.54,8.65-17.4,14.08-32.96,15.47-29.73,2.58-53.39-11.87-53.39-38.2s22.55-44.74,52.56-47.32c17.58-1.47,27.98,3.5,33.88,9.67,0-1.1,0-2.21,0-3.22Zm0,22.09c0-8.47-10.4-17.86-20.44-16.94-14.54,1.29-17.4,20.62-17.4,31.67,0,19.79,6.9,32.4,18.23,31.39,10.86-1.47,19.33-14.64,19.52-35.9.09-3.41.09-6.81.09-10.22Z"/>
  <path class="cls-1" d="m723.08,249.65v2.58c-26.97,3.96-53.94,7.64-80.92,11.05v-2.58c1.1-1.56,2.21-3.13,3.22-4.79,7.82-11.6,12.98-27.71,12.98-40.5v-80.92c-7.27.92-14.45,1.84-21.72,2.76v-8.28c7.27-.92,14.45-1.84,21.72-2.76,22.55-2.95,34.06-21.72,40.41-40.87,2.67-.37,5.34-.74,8.01-1.1v35.35c7.27-1.01,14.45-2.12,21.72-3.13v8.28c-7.27,1.1-14.45,2.12-21.72,3.13v80.92c0,12.8,5.25,27.43,12.98,37.01,1.1,1.29,2.21,2.58,3.31,3.87Z"/>
  <path class="cls-1" d="m731.74,64.71v-2.58c24.67-3.68,49.34-7.46,74.01-11.41,54.5-8.65,90.49,25.68,90.49,81.1s-35.81,99.05-90.49,107.8c-24.67,3.96-49.34,7.73-74.01,11.41v-2.58c1.1-1.56,2.21-3.22,3.22-4.79,7.82-11.6,12.98-27.98,12.98-40.78v-97.21c0-12.98-5.25-27.62-12.98-36.91-1.01-1.47-2.12-2.76-3.22-4.05Zm64.71-4.42v172.79c1.2-.18,2.49-.37,3.68-.55,29.55-4.69,47.78-40.69,47.78-94.08s-17.58-83.49-47.78-78.71c-1.2.09-2.49.28-3.68.55Z"/>
  <path class="cls-1" d="m1027.32,161c-2.85,27.98-24.76,49.34-55.78,54.31-38.66,6.17-66.65-17.21-66.65-59.28s27.98-74.75,69.68-81.38c35.81-5.71,55.97,12.52,53.21,41.42-.64,5.98-4.79,37.74-57.07,46.03-4.79.74-9.76,1.1-15.19,1.56,4.6,25.31,17.77,35.35,34.7,32.68,16.29-2.58,27.98-15.47,31.94-34.43,1.75-.37,3.41-.64,5.16-.92Zm-72.72-1.38c13.9-12.89,27.8-27.43,31.94-51.09,2.58-16.48-1.1-27.62-10.68-26.05-13.44,2.12-22.37,28.72-22.37,59.74.09,6.08.28,12.15,1.1,17.4Z"/>
  <path class="cls-1" d="m1120.48,188.16v2.58c-26.97,3.5-53.94,7.36-80.92,11.41v-2.58c1.1-1.56,2.21-3.22,3.22-4.79,7.82-11.78,12.98-27.98,12.98-40.78v-80.92c-7.27,1.1-14.45,2.12-21.72,3.22v-8.28c7.27-1.1,14.45-2.21,21.72-3.22,22.55-3.31,34.06-22,40.41-41.15,2.67-.37,5.34-.74,8.01-1.1v35.35c7.27-1.01,14.45-1.93,21.72-2.85v8.28c-7.27.92-14.45,1.93-21.72,2.85v80.92c0,12.8,5.25,27.52,12.98,37.1,1.1,1.29,2.21,2.67,3.31,3.96Z"/>
  <path class="cls-1" d="m1253.5,133.29c-2.85,27.8-24.76,47.59-55.78,50.81-38.66,4.14-66.65-20.16-66.65-62.32s27.98-73.83,69.68-78.25c35.81-3.68,55.97,16.11,53.21,44.74-.64,6.08-4.79,37.19-57.07,42.53-4.79.46-9.76.64-15.19.83,4.6,25.5,17.77,36.18,34.7,34.52,16.29-1.56,27.98-13.62,31.94-32.4,1.66-.18,3.41-.28,5.16-.46Zm-72.72-5.71c13.9-12.15,27.8-25.96,31.94-49.43,2.58-16.29-1.1-27.71-10.68-26.7-13.44,1.38-22.37,27.62-22.37,58.64,0,6.17.28,12.15,1.1,17.49Z"/>
  <path class="cls-1" d="m1386.52,126.76c-2.85,27.62-24.76,45.84-55.78,47.22-38.66,1.75-66.65-23.84-66.65-66s27.98-72.54,69.68-74.38c35.81-1.47,55.97,19.79,53.85,41.52-1.56,17.77-17.4,27.16-29.55,27.52-3.22.09-6.08-.46-8.47-1.47-8.65-3.77-5.62-13.44-4.6-16.11,11.51-34.43-.18-43.82-9.11-43.45-14.36.64-23.2,26.33-23.2,57.35,0,40.78,15.37,59.01,36.64,58.27,16.29-.55,27.98-11.78,31.94-30.29,1.75-.18,3.5-.18,5.25-.18Z"/>
  <path class="cls-1" d="m1479.86,168.73v2.58c-26.97-1.38-53.94-1.93-80.92-1.75v-2.58c1.1-1.47,2.21-2.95,3.22-4.33,7.82-10.68,12.98-26.05,12.98-38.85V42.9h-21.72v-8.28c7.27-.09,14.45-.09,21.72,0,22.55.18,34.06-16.57,40.41-34.61,2.67.09,5.34.18,8.01.28v35.35c7.27.28,14.45.64,21.72,1.01v8.28c-7.27-.37-14.45-.74-21.72-1.01v80.92c0,12.8,5.25,28.44,12.98,39.4,1.1,1.56,2.21,3.04,3.31,4.51Z"/>
  <path class="cls-1" d="m1560.59,40.32c42.07,4.79,70.51,38.11,70.51,80.18s-28.44,64.81-70.51,60.02c-42.07-4.69-70.15-33.88-70.15-76.04s27.98-68.86,70.15-64.16Zm-.28,132.1c13.72,1.56,22.09-19.7,22.09-59.56,0-36.91-7.36-62.87-20.8-64.44-13.72-1.56-22.55,22.83-22.55,62.96,0,37.83,7.82,59.56,21.26,61.03Z"/>
  <path class="cls-1" d="m1783.27,123.17c-2.21,20.53-25.13,27.89-42.07,19.98-10.86-4.97-12.8-13.53-5.43-26.88,7.64-13.26,11.05-31.85-4.14-36.09-19.79-5.71-27.52,26.14-28.63,42.81v34.06c0,12.8,5.25,29.46,12.98,42.07,1.1,1.75,2.21,3.41,3.22,5.16v2.58c-26.97-7-53.94-12.89-80.92-17.67v-2.58c1.1-1.29,2.21-2.49,3.22-3.77,7.82-9.21,12.98-23.57,12.98-36.36v-27.16c0-12.8-5.25-29.64-12.98-41.33-1.1-1.66-2.21-3.31-3.22-4.97v-2.58c25.41,3.77,39.49,3.13,64.71-2.67v26.24c4.33-10.86,14.08-25.59,40.41-18.23,24.67,7.09,41.52,28.08,39.86,47.41Z"/>
</svg>