<?xml version="1.0" encoding="utf-8"?>
<!-- Generator: Adobe Illustrator 27.2.0, SVG Export Plug-In . SVG Version: 6.00 Build 0)  -->
<svg version="1.1" id="Capa_1" xmlns="http://www.w3.org/2000/svg" xmlns:xlink="http://www.w3.org/1999/xlink" x="0px" y="0px"
	 viewBox="0 0 300 300" style="enable-background:new 0 0 300 300;" xml:space="preserve">
<style type="text/css">
	.st0{fill:#FFFFFF;}
</style>
<g>
	<path class="st0" d="M34.7,34.8h230.5v69.2H34.7V34.8z M208.2,265.2l-115.9,0.1c-31.8-0.1-57.5-25.9-57.5-57.6l-0.1-88.1h76.6v88.1
		h77.3v-88.1h76.6v84.4c0.1,1.2,0.1,2.4,0.1,3.7C265.3,239.2,239.8,264.9,208.2,265.2"/>
	<path class="st0" d="M34.7,34.8h230.5v69.2H34.7V34.8z M208.2,265.2l-115.9,0.1c-31.8-0.1-57.5-25.9-57.5-57.6l-0.1-88.1h76.6v88.1
		h77.3v-88.1h76.6v84.4c0.1,1.2,0.1,2.4,0.1,3.7C265.3,239.2,239.8,264.9,208.2,265.2z"/>
</g>
</svg>
