<?xml version="1.0" encoding="utf-8"?>
<!-- Generator: Adobe Illustrator 27.2.0, SVG Export Plug-In . SVG Version: 6.00 Build 0)  -->
<svg version="1.1" id="Layer_1" xmlns="http://www.w3.org/2000/svg" xmlns:xlink="http://www.w3.org/1999/xlink" x="0px" y="0px"
	 viewBox="0 0 1371.8 1371.8" style="enable-background:new 0 0 1371.8 1371.8;" xml:space="preserve">
<style type="text/css">
	.st0{fill:#08CCCC;stroke:#08CCCC;stroke-miterlimit:10;}
</style>
<path class="st0" d="M173,849.9c82.1-83.4,165.2-162.3,241.9-247C572,429.6,815.6,436.7,954.2,577.7c35.2,35.8,76.7,36.3,111.9,6.6
	c36-30.4,69.6-63.8,112.3-103.4c-25.8-21.6-45.1-35.7-62-52.3c-214-211-534.8-240.1-768.9-55.9c-120.3,94.6-223.2,211.2-334,318
	C67.6,744.7,116.9,793.9,173,849.9L173,849.9z M197.5,887.4c27.2,23.4,47.2,39.1,65.3,56.6c203.1,196.2,504.9,238.7,726,80.4
	c136.8-98,251.9-226.4,369.4-334.4c-56.3-59.6-104.8-111-158.8-168.1c-89.5,91.7-176.6,184.5-267.7,273.2
	c-87.5,85.3-193.8,117.1-315.5,97c-73.3-12.1-134.6-45.4-188.9-94.9c-43.6-39.8-82.7-41.3-123.1-6.2
	C270.8,819.9,238.5,850.2,197.5,887.4z"/>
<path class="st0" d="M173,849.9c-56.1-56-105.4-105.2-159.5-159.2c110.9-106.8,213.8-223.4,334-318
	c234.2-184.2,554.9-155.1,768.9,55.9c16.8,16.6,36.1,30.7,62,52.3c-42.8,39.6-76.3,73-112.3,103.4c-35.2,29.7-76.6,29.2-111.9-6.6
	c-138.7-141-382.2-148.1-539.3,25.2C338.1,687.6,255,766.5,173,849.9L173,849.9z"/>
<path class="st0" d="M197.5,887.4c41-37.1,73.3-67.5,106.7-96.5c40.4-35,79.5-33.5,123.1,6.2c54.3,49.5,115.6,82.8,188.9,94.9
	c121.8,20.2,228-11.7,315.5-97c91.1-88.7,178.2-181.6,267.7-273.2c54,57.1,102.5,108.5,158.8,168.1
	c-117.5,108-232.6,236.4-369.4,334.4c-221.1,158.3-522.9,115.9-726-80.4C244.7,926.4,224.7,910.8,197.5,887.4L197.5,887.4z"/>
</svg>
